<svg width="184" height="99" viewBox="0 0 184 99" fill="none" xmlns="http://www.w3.org/2000/svg">
<g clip-path="url(#clip0_149_226)">
<path d="M122.679 40.1494H58.9961V62.5371H122.679V40.1494Z" fill="url(#paint0_linear_149_226)"/>
<path d="M69.7397 50.793V62.5368H58.9961V43.1387C61.8452 43.1387 64.5777 43.9451 66.5924 45.3805C68.6072 46.8159 69.7393 48.7628 69.7397 50.793Z" fill="#97001E"/>
<path d="M122.679 43.1416V62.537H111.942V50.7948C111.942 48.7651 113.073 46.8184 115.087 45.3832C117.1 43.9479 119.831 43.1416 122.679 43.1416Z" fill="#97001E"/>
<path d="M90.8373 43.1416C92.2474 43.1415 93.6437 43.3393 94.9465 43.7238C96.2493 44.1084 97.4331 44.6721 98.4303 45.3828C99.4275 46.0935 100.218 46.9372 100.758 47.8658C101.298 48.7944 101.576 49.7897 101.576 50.7948V62.537H80.1006V50.7948C80.1006 48.7651 81.2318 46.8184 83.2453 45.3832C85.2588 43.9479 87.9897 43.1416 90.8373 43.1416Z" fill="#97001E"/>
<path d="M62.6066 35.0957H72.631V40.1493H58.9961V37.6671C58.9969 36.9849 59.3777 36.3309 60.0547 35.8487C60.7317 35.3665 61.6496 35.0957 62.6066 35.0957Z" fill="url(#paint1_linear_149_226)"/>
<path d="M109.043 35.0957H119.068C120.025 35.0957 120.944 35.3669 121.621 35.8495C122.298 36.3322 122.678 36.9868 122.678 37.6693V40.1516H109.043V35.0957Z" fill="url(#paint2_linear_149_226)"/>
<path d="M97.655 35.0957H84.02V40.1493H97.655V35.0957Z" fill="url(#paint3_linear_149_226)"/>
</g>
<path d="M121.788 33.0829L117.95 63.3416H133.838H135.087H150.975L147.137 33.0829L148.744 31.387L149.28 24.4248H147.137V28.8877H143.656V24.4248H142.407V28.8877H139.372V24.4248H138.301V28.8877H135.087V24.4248H133.927V28.8877H130.624V24.4248H129.553V28.8877H126.519V24.4248H125.269V28.8877H121.788V24.4248H119.646L120.181 31.387L121.788 33.0829Z" fill="url(#paint4_linear_149_226)"/>
<path d="M135.087 63.3416H117.95L121.788 33.0829L120.181 31.387L119.646 24.4248H121.788V28.8877H125.269V24.4248H126.519V28.8877H129.553V24.4248H130.624V28.8877H133.927V24.4248H135.087V28.8877H138.301V24.4248H139.372V28.8877H142.407V24.4248H143.656V28.8877H147.137V24.4248H149.28L148.744 31.387L147.137 33.0829L150.975 63.3416H133.838" stroke="#CC0029" stroke-width="0.2"/>
<path d="M134.462 0L149.691 22.0915H119.234L134.462 0Z" fill="url(#paint5_linear_149_226)"/>
<path d="M34.8498 33.0829L31.0117 63.3416H46.8998H48.1494H64.0375L60.1993 33.0829L61.806 31.387L62.3415 24.4248H60.1993V28.8877H56.7182V24.4248H55.4686V28.8877H52.4338V24.4248H51.3627V28.8877H48.1494V24.4248H46.989V28.8877H43.6865V24.4248H42.6154V28.8877H39.5806V24.4248H38.3309V28.8877H34.8498V24.4248H32.7076L33.2432 31.387L34.8498 33.0829Z" fill="url(#paint6_linear_149_226)"/>
<path d="M48.1494 63.3416H31.0117L34.8498 33.0829L33.2432 31.387L32.7076 24.4248H34.8498V28.8877H38.3309V24.4248H39.5806V28.8877H42.6154V24.4248H43.6865V28.8877H46.989V24.4248H48.1494V28.8877H51.3627V24.4248H52.4338V28.8877H55.4686V24.4248H56.7182V28.8877H60.1993V24.4248H62.3415L61.806 31.387L60.1993 33.0829L64.0375 63.3416H46.8998" stroke="#CC0029" stroke-width="0.2"/>
<path d="M47.5246 0L62.7527 22.0915H32.2964L47.5246 0Z" fill="url(#paint7_linear_149_226)"/>
<path d="M3.95976 75.3676C2.70211 73.74 2.07328 72.9262 2.07299 72.244C2.07272 71.624 2.36001 71.039 2.85077 70.6601C3.39077 70.2432 4.4192 70.2432 6.47605 70.2432H24.6779C25.7791 70.2432 26.3297 70.2432 26.7518 70.4541C27.1392 70.6477 27.4534 70.9618 27.647 71.3492C27.8579 71.7713 27.8579 72.3219 27.8579 73.4232V95.4938C27.8579 96.595 27.8579 97.1457 27.647 97.5678C27.4534 97.9552 27.1392 98.2693 26.7518 98.4629C26.3297 98.6738 25.7791 98.6738 24.6779 98.6738H6.22527C4.23739 98.6738 3.24344 98.6738 2.70786 98.2682C2.22085 97.8994 1.9291 97.3283 1.91574 96.7175C1.90105 96.0459 2.48361 95.2406 3.64875 93.6299L9.22869 85.9165C9.72329 85.2328 9.9706 84.8909 10.0645 84.5192C10.151 84.1769 10.1453 83.8178 10.048 83.4784C9.94243 83.1098 9.68444 82.776 9.16846 82.1082L3.95976 75.3676Z" fill="url(#paint8_linear_149_226)"/>
<path d="M179.902 75.3676C181.16 73.74 181.789 72.9262 181.789 72.244C181.789 71.624 181.502 71.039 181.011 70.6601C180.471 70.2432 179.443 70.2432 177.386 70.2432H159.184C158.083 70.2432 157.532 70.2432 157.11 70.4541C156.723 70.6477 156.408 70.9618 156.215 71.3492C156.004 71.7713 156.004 72.3219 156.004 73.4232V95.4938C156.004 96.595 156.004 97.1457 156.215 97.5678C156.408 97.9552 156.723 98.2693 157.11 98.4629C157.532 98.6738 158.083 98.6738 159.184 98.6738H177.637C179.624 98.6738 180.618 98.6738 181.154 98.2682C181.641 97.8994 181.933 97.3283 181.946 96.7175C181.961 96.0459 181.378 95.2406 180.213 93.6299L174.633 85.9165C174.139 85.2328 173.891 84.8909 173.797 84.5192C173.711 84.1769 173.717 83.8178 173.814 83.4784C173.919 83.1098 174.177 82.776 174.693 82.1082L179.902 75.3676Z" fill="url(#paint9_linear_149_226)"/>
<path d="M18 68C18 64.6863 20.6863 62 24 62H161.391C164.705 62 167.391 64.6863 167.391 68V88.4306C167.391 89.5352 166.496 90.4306 165.391 90.4306H20C18.8954 90.4306 18 89.5352 18 88.4306V68Z" fill="url(#paint10_linear_149_226)"/>
<path d="M26.7705 79.0967C26.1045 79.0967 25.4886 79.0537 24.9229 78.9678C24.3607 78.8783 23.8451 78.7118 23.376 78.4683V76.3467H24.9927C25.1431 76.5544 25.3275 76.7316 25.5459 76.8784C25.7679 77.0252 26.0347 77.0986 26.3462 77.0986C26.5968 77.0986 26.7741 77.0324 26.8779 76.8999C26.9818 76.7638 27.0337 76.5651 27.0337 76.3037C26.5503 76.2607 26.0848 76.1855 25.6372 76.0781C25.1932 75.9707 24.7957 75.8132 24.4448 75.6055C24.0939 75.3942 23.8164 75.1149 23.6123 74.7676C23.4082 74.4167 23.3062 73.978 23.3062 73.4517C23.3062 72.7463 23.4619 72.1912 23.7734 71.7866C24.0885 71.382 24.52 71.0938 25.0679 70.9219C25.6193 70.75 26.2477 70.6641 26.9531 70.6641C27.6514 70.6641 28.269 70.7178 28.8062 70.8252C29.3433 70.9326 29.8392 71.092 30.2939 71.3032V73.3979H28.6772C28.534 73.1938 28.3568 73.0184 28.1455 72.8716C27.9342 72.7212 27.6782 72.646 27.3774 72.646C27.1268 72.646 26.946 72.723 26.835 72.877C26.724 73.0273 26.6685 73.235 26.6685 73.5C27.2163 73.5179 27.7212 73.5752 28.1831 73.6719C28.6486 73.7686 29.0514 73.9261 29.3916 74.1445C29.7354 74.3594 30.0003 74.6512 30.1865 75.02C30.3763 75.3853 30.4712 75.849 30.4712 76.4111C30.4712 76.9232 30.3763 77.3529 30.1865 77.7002C29.9967 78.0439 29.7336 78.3179 29.397 78.522C29.0604 78.7261 28.6683 78.8729 28.2207 78.9624C27.7731 79.0519 27.2897 79.0967 26.7705 79.0967ZM31.1104 79V76.8569L31.7549 76.7334V73.6772L31.1104 73.5537V71.4375H34.9829L36.6104 74.3271L38.2217 71.4375H42.0942V73.5537L41.4497 73.6772V76.7334L42.0942 76.8569V79H38.2217V75.2993L36.6104 78.0278L34.9829 75.2993V79H31.1104ZM47.1001 79.0967C46.1834 79.0967 45.3867 78.957 44.71 78.6777C44.0332 78.3984 43.5086 77.9652 43.1362 77.3779C42.7674 76.7907 42.583 76.0369 42.583 75.1167C42.583 74.2144 42.7728 73.4785 43.1523 72.9092C43.5319 72.3363 44.0601 71.9137 44.7368 71.6416C45.4172 71.3695 46.2049 71.2334 47.1001 71.2334C47.9953 71.2334 48.783 71.3695 49.4634 71.6416C50.1437 71.9137 50.6737 72.3363 51.0532 72.9092C51.4364 73.4785 51.6279 74.2144 51.6279 75.1167C51.6279 76.0369 51.4435 76.7907 51.0747 77.3779C50.7059 77.9652 50.1831 78.3984 49.5063 78.6777C48.8296 78.957 48.0275 79.0967 47.1001 79.0967ZM47.1001 76.7549C47.6014 76.7549 47.9434 76.6045 48.126 76.3037C48.3086 76.0029 48.3999 75.6073 48.3999 75.1167C48.3999 74.6261 48.3068 74.2376 48.1206 73.9512C47.938 73.6647 47.5978 73.5215 47.1001 73.5215C46.6131 73.5215 46.2765 73.6611 46.0903 73.9404C45.9077 74.2197 45.8164 74.6029 45.8164 75.0898C45.8164 75.5876 45.9023 75.9904 46.0742 76.2983C46.2497 76.6027 46.5916 76.7549 47.1001 76.7549ZM52.0791 79V76.8569L52.7236 76.7334V73.6772L52.0791 73.5537V71.4375H56.6016V73.5537L55.9517 73.6772V76.9375C56.2668 76.9375 56.5371 76.8659 56.7627 76.7227C56.9919 76.5794 57.1799 76.4219 57.3267 76.25H58.2236V79H52.0791ZM58.9004 79V76.8569L59.5449 76.7334V73.688L58.9004 73.5645V71.4375H65.5391V74.1875H64.8032C64.5633 74.0085 64.2697 73.8652 63.9224 73.7578C63.575 73.6504 63.1937 73.5967 62.7783 73.5967V74.7622L64.2661 74.4453V75.9761L62.7783 75.6538V76.8408C63.1973 76.8408 63.5804 76.7889 63.9277 76.6851C64.2786 76.5812 64.5705 76.4362 64.8032 76.25H65.5391V79H58.9004ZM66.3018 79V76.8569L66.9463 76.7334V73.6772L66.3018 73.5537V71.4375H70.1797L72.7632 75.5142V73.688L72.1187 73.5537V71.4375H75.3467V73.5537L74.7021 73.6772V76.7334L75.3467 76.8569V79H71.4688L68.8853 75.0308V76.7334L69.5352 76.8516V79H66.3018ZM79.1978 79.0967C78.5532 79.0967 77.9875 79.0537 77.5005 78.9678C77.0171 78.8818 76.5731 78.7368 76.1685 78.5327V76.6689H77.6885C77.8066 76.8551 77.9552 77.0163 78.1343 77.1523C78.3169 77.2884 78.5389 77.3564 78.8003 77.3564C79.0545 77.3564 79.2246 77.2759 79.3105 77.1147C79.4001 76.9536 79.4448 76.737 79.4448 76.4648C79.0008 76.4255 78.5693 76.3592 78.1504 76.2661C77.7314 76.173 77.3555 76.0334 77.0225 75.8472C76.693 75.661 76.4299 75.4103 76.2329 75.0952C76.0396 74.7801 75.9429 74.3809 75.9429 73.8975C75.9429 73.2314 76.0897 72.7051 76.3833 72.3184C76.6805 71.9281 77.0869 71.6506 77.6025 71.4858C78.1217 71.3175 78.7108 71.2334 79.3696 71.2334C79.9963 71.2334 80.5549 71.2907 81.0454 71.4053C81.5396 71.5163 81.9925 71.6667 82.4043 71.8564V73.7363H80.7769C80.6766 73.543 80.5459 73.3711 80.3848 73.2207C80.2236 73.0703 80.0195 72.9951 79.7725 72.9951C79.5111 72.9951 79.3338 73.0918 79.2407 73.2852C79.1476 73.4785 79.1011 73.7148 79.1011 73.9941C79.606 74.012 80.075 74.064 80.5083 74.1499C80.9416 74.2323 81.3211 74.3701 81.647 74.5635C81.9728 74.7533 82.2253 75.0146 82.4043 75.3477C82.5869 75.6807 82.6782 76.105 82.6782 76.6206C82.6782 77.2687 82.5243 77.7718 82.2163 78.1299C81.9084 78.488 81.4912 78.7386 80.9648 78.8818C80.4421 79.0251 79.853 79.0967 79.1978 79.0967ZM83.2529 79V76.8569L83.8975 76.7334V73.6772L83.2529 73.5537V71.4375H87.1309V74.4561L88.5596 71.4375H92.04V72.8018C91.6641 73.1204 91.3203 73.4785 91.0088 73.876C90.6973 74.2699 90.4108 74.6799 90.1494 75.106C90.4574 75.5929 90.776 76.0799 91.1055 76.5669C91.4385 77.0503 91.7983 77.4961 92.1851 77.9043V79H88.5596L87.1309 75.8311V79H83.2529ZM96.2563 79V76.293L96.917 76.1587L98.5015 70.75H102.938L104.528 76.1587L105.188 76.293V79H102.132L101.842 77.6143H99.5972L99.3125 79H96.2563ZM100.059 75.772H101.38L100.72 72.6621L100.059 75.772ZM105.962 79V76.8569L106.606 76.7334V73.6772L105.962 73.5537V71.4375H110.361C110.826 71.4375 111.279 71.4536 111.72 71.4858C112.16 71.5181 112.563 71.5897 112.928 71.7007C113.293 71.8117 113.596 71.98 113.836 72.2056C114.079 72.4312 114.235 72.7373 114.303 73.124C114.339 73.3245 114.357 73.5448 114.357 73.7847C114.357 74.1893 114.291 74.5169 114.158 74.7676C114.029 75.0182 113.85 75.2205 113.621 75.3745C113.392 75.5285 113.125 75.6646 112.821 75.7827C113 76.1372 113.238 76.4845 113.535 76.8247C113.832 77.1613 114.106 77.4728 114.357 77.7593V79H111.145C110.927 78.5918 110.714 78.1657 110.506 77.7217C110.302 77.2741 110.139 76.7961 110.017 76.2876H109.84V79H105.962ZM109.84 74.832C110.252 74.832 110.57 74.7729 110.796 74.6548C111.021 74.5366 111.134 74.2716 111.134 73.8599C111.134 73.4481 111.02 73.1813 110.791 73.0596C110.565 72.9378 110.248 72.877 109.84 72.877V74.832ZM116.409 79V76.8569L117.053 76.7334V73.4355C116.878 73.4355 116.701 73.4642 116.521 73.5215C116.346 73.5788 116.199 73.6629 116.081 73.7739C115.963 73.8849 115.904 74.0228 115.904 74.1875H115.007V71.4375H122.333V74.1875H121.436C121.436 74.0228 121.375 73.8849 121.253 73.7739C121.135 73.6629 120.988 73.5788 120.813 73.5215C120.638 73.4642 120.462 73.4355 120.287 73.4355V76.7334L120.931 76.8569V79H116.409ZM126.104 79.0054L123.907 73.21L122.929 73.0811V70.75H128.306V73.0811L127.715 73.21L128.644 76.2661L129.573 73.21L128.982 73.0811V70.75H134.198V73.0811L133.607 73.21L134.536 76.2661L135.465 73.21L134.875 73.0811V70.75H138.989V73.0811L138.017 73.21L135.82 79.0054H131.996L130.959 75.8472L129.928 79.0054H126.104ZM138.822 79V76.5078L139.445 76.3843L140.933 71.4375H145.101L146.6 76.3843L147.217 76.5078V79H144.344L144.075 77.7271H141.964L141.696 79H138.822ZM142.292 76.0298H143.748L143.017 73.0596L142.292 76.0298ZM147.889 79V76.8569L148.533 76.7334V73.6772L147.889 73.5537V71.4375H152.411V73.5537L151.761 73.6772V76.9375C152.076 76.9375 152.347 76.8659 152.572 76.7227C152.801 76.5794 152.989 76.4219 153.136 76.25H154.033V79H147.889ZM154.71 79V76.8569L155.354 76.7334V73.6772L154.71 73.5537V71.4375H159.232V73.5537L158.583 73.6772V76.9375C158.898 76.9375 159.168 76.8659 159.394 76.7227C159.623 76.5794 159.811 76.4219 159.958 76.25H160.854V79H154.71Z" fill="#FFE8AD"/>
<rect x="34.6792" y="57.7461" width="3.12425" height="1.82248" fill="#83001A"/>
<rect x="137.623" y="58.6318" width="3.12425" height="1.82248" fill="#83001A"/>
<rect x="126.74" y="52.8516" width="3.12425" height="1.82248" fill="#8A001B"/>
<rect x="123.616" y="35.8242" width="3.12425" height="1.82248" fill="#9E001F"/>
<rect x="143.403" y="40.1465" width="3.12425" height="1.82248" fill="#94001D"/>
<path d="M54.0493 51.9141H57.1736V53.7365H54.0493V51.9141Z" fill="#8A001B"/>
<rect x="39.9902" y="34.1582" width="3.12425" height="1.82248" fill="#9E001F"/>
<defs>
<linearGradient id="paint0_linear_149_226" x1="90.8681" y1="18.4013" x2="90.8681" y2="62.5371" gradientUnits="userSpaceOnUse">
<stop stop-color="#CC0029"/>
<stop offset="1" stop-color="#97001E"/>
</linearGradient>
<linearGradient id="paint1_linear_149_226" x1="65.8136" y1="35.2311" x2="65.8136" y2="40.0467" gradientUnits="userSpaceOnUse">
<stop stop-color="#CC0029"/>
<stop offset="1" stop-color="#97001E"/>
</linearGradient>
<linearGradient id="paint2_linear_149_226" x1="115.861" y1="35.2311" x2="115.861" y2="40.0467" gradientUnits="userSpaceOnUse">
<stop stop-color="#CC0029"/>
<stop offset="1" stop-color="#97001E"/>
</linearGradient>
<linearGradient id="paint3_linear_149_226" x1="90.8375" y1="35.2311" x2="90.8375" y2="40.0467" gradientUnits="userSpaceOnUse">
<stop stop-color="#CC0029"/>
<stop offset="1" stop-color="#97001E"/>
</linearGradient>
<linearGradient id="paint4_linear_149_226" x1="134.463" y1="24.4248" x2="134.463" y2="63.3416" gradientUnits="userSpaceOnUse">
<stop stop-color="#CC0029"/>
<stop offset="1" stop-color="#97001E"/>
</linearGradient>
<linearGradient id="paint5_linear_149_226" x1="134.462" y1="0" x2="134.462" y2="29.4554" gradientUnits="userSpaceOnUse">
<stop stop-color="#CC0029"/>
<stop offset="1" stop-color="#97001E"/>
</linearGradient>
<linearGradient id="paint6_linear_149_226" x1="47.5246" y1="24.4248" x2="47.5246" y2="63.3416" gradientUnits="userSpaceOnUse">
<stop stop-color="#CC0029"/>
<stop offset="1" stop-color="#97001E"/>
</linearGradient>
<linearGradient id="paint7_linear_149_226" x1="47.5246" y1="0" x2="47.5246" y2="29.4554" gradientUnits="userSpaceOnUse">
<stop stop-color="#CC0029"/>
<stop offset="1" stop-color="#97001E"/>
</linearGradient>
<linearGradient id="paint8_linear_149_226" x1="13.9289" y1="70.2432" x2="13.9289" y2="98.6738" gradientUnits="userSpaceOnUse">
<stop stop-color="#BB0025"/>
<stop offset="1" stop-color="#97001E"/>
</linearGradient>
<linearGradient id="paint9_linear_149_226" x1="169.933" y1="70.2432" x2="169.933" y2="98.6738" gradientUnits="userSpaceOnUse">
<stop stop-color="#BB0025"/>
<stop offset="1" stop-color="#97001E"/>
</linearGradient>
<linearGradient id="paint10_linear_149_226" x1="92.6955" y1="62" x2="92.6955" y2="90.4306" gradientUnits="userSpaceOnUse">
<stop stop-color="#BB0025"/>
<stop offset="1" stop-color="#97001E"/>
</linearGradient>
<clipPath id="clip0_149_226">
<rect width="63.6826" height="27.4413" fill="white" transform="translate(58.9961 35.0957)"/>
</clipPath>
</defs>
</svg>
