<svg width="43" height="43" viewBox="0 0 43 43" fill="none" xmlns="http://www.w3.org/2000/svg">
<path d="M21.5 25.8C33.368 25.8 43 30.3007 43 35.8333V43H0V35.8333C0 30.3007 9.632 25.8 21.5 25.8ZM40.1333 35.8333C40.1333 31.8773 31.7913 28.6667 21.5 28.6667C11.2087 28.6667 2.86667 31.8773 2.86667 35.8333V40.1333H40.1333V35.8333ZM21.5 0C24.161 0 26.713 1.05708 28.5946 2.9387C30.4763 4.82031 31.5333 7.37233 31.5333 10.0333C31.5333 12.6943 30.4763 15.2464 28.5946 17.128C26.713 19.0096 24.161 20.0667 21.5 20.0667C18.839 20.0667 16.287 19.0096 14.4054 17.128C12.5237 15.2464 11.4667 12.6943 11.4667 10.0333C11.4667 7.37233 12.5237 4.82031 14.4054 2.9387C16.287 1.05708 18.839 0 21.5 0ZM21.5 2.86667C19.5993 2.86667 17.7764 3.62172 16.4324 4.96573C15.0884 6.30975 14.3333 8.13261 14.3333 10.0333C14.3333 11.9341 15.0884 13.7569 16.4324 15.1009C17.7764 16.4449 19.5993 17.2 21.5 17.2C23.4007 17.2 25.2236 16.4449 26.5676 15.1009C27.9116 13.7569 28.6667 11.9341 28.6667 10.0333C28.6667 8.13261 27.9116 6.30975 26.5676 4.96573C25.2236 3.62172 23.4007 2.86667 21.5 2.86667Z" fill="black"/>
</svg>
