<svg width="23" height="23" viewBox="0 0 23 23" fill="none" xmlns="http://www.w3.org/2000/svg">
<path fill-rule="evenodd" clip-rule="evenodd" d="M3.69478 6.67007C3.71203 7.54293 3.23708 8.72283 2.61953 9.33923C2.04649 9.91281 1.72461 10.6904 1.72461 11.5012C1.72461 12.312 2.04649 13.0896 2.61953 13.6632C3.22903 14.2704 3.67753 15.3238 3.69478 16.184C3.71088 16.9453 4.00873 17.702 4.58948 18.2816C5.12528 18.8185 5.84205 19.1363 6.59968 19.1729C7.50933 19.2189 8.70073 19.7479 9.34473 20.3919C9.91827 20.9646 10.6956 21.2862 11.5062 21.2862C12.3167 21.2862 13.094 20.9646 13.6676 20.3919C14.3116 19.7479 15.503 19.2189 16.4126 19.1729C17.1703 19.1363 17.887 18.8185 18.4228 18.2816C18.9814 17.7238 19.3017 16.971 19.3164 16.1817C19.3336 15.3238 19.7764 14.2773 20.3847 13.6701C20.9599 13.0967 21.2838 12.3183 21.2851 11.5061C21.2864 10.6939 20.965 9.91446 20.3916 9.33923C19.7752 8.72398 19.2991 7.54292 19.3175 6.67122C19.3262 6.25966 19.2514 5.8506 19.0976 5.46874C18.9438 5.08688 18.7143 4.74014 18.4228 4.44942C18.1208 4.14656 17.7583 3.91068 17.3591 3.75713C16.9598 3.60357 16.5327 3.53579 16.1056 3.55817C15.2845 3.59957 14.2483 3.20167 13.6676 2.61977C13.094 2.04674 12.3164 1.72485 11.5056 1.72485C10.6948 1.72485 9.91717 2.04674 9.34358 2.61977C8.76398 3.20052 7.72668 3.59957 6.90558 3.55817C6.47861 3.53595 6.05173 3.60382 5.6527 3.75737C5.25367 3.91091 4.89142 4.14671 4.58948 4.44942C4.29816 4.74 4.0687 5.08656 3.91493 5.46821C3.76117 5.84986 3.68628 6.2587 3.69478 6.67007ZM14.997 7.61997C15.1291 7.69327 15.2454 7.79187 15.3394 7.91015C15.4334 8.02842 15.5031 8.16405 15.5447 8.30929C15.5862 8.45454 15.5987 8.60654 15.5815 8.75662C15.5643 8.9067 15.5177 9.05192 15.4443 9.18397L12.2611 14.9133C12.1787 15.0693 12.0614 15.2043 11.9184 15.3077C11.7106 15.4581 11.4586 15.5346 11.2023 15.5253C10.946 15.5159 10.7002 15.4211 10.5039 15.256L7.33108 12.7179C7.21313 12.6235 7.11493 12.5068 7.04208 12.3745C6.96924 12.2422 6.92317 12.0968 6.90651 11.9466C6.88985 11.7965 6.90293 11.6445 6.94499 11.4994C6.98706 11.3544 7.05729 11.219 7.15168 11.101C7.24607 10.9831 7.36276 10.8849 7.4951 10.812C7.62744 10.7392 7.77283 10.6931 7.92298 10.6765C8.07312 10.6598 8.22507 10.6729 8.37016 10.7149C8.51525 10.757 8.65063 10.8272 8.76858 10.9216L10.8995 12.6271L13.433 8.06617C13.5064 7.93418 13.605 7.81793 13.7234 7.72407C13.8417 7.63021 13.9773 7.56058 14.1226 7.51914C14.2678 7.47771 14.4198 7.46529 14.5698 7.48259C14.7198 7.49989 14.865 7.54657 14.997 7.61997Z" fill="black"/>
</svg>
