<svg width="45" height="45" viewBox="0 0 45 45" fill="none" xmlns="http://www.w3.org/2000/svg">
<path d="M44 22.5C44.0036 25.3228 43.4501 28.1186 42.3712 30.7271C41.2923 33.3356 39.7092 35.7055 37.7127 37.701C35.7153 39.699 33.3436 41.2837 30.7333 42.3645C28.123 43.4453 25.3253 44.001 22.5002 43.9999C19.4595 44.0067 16.4524 43.3648 13.6794 42.1172L4.69134 43.4468C4.24507 43.5196 3.78776 43.4824 3.35913 43.3384C2.9305 43.1944 2.54351 42.9479 2.23177 42.6204C1.92003 42.2928 1.69298 41.8941 1.57032 41.4589C1.44767 41.0237 1.43312 40.5651 1.52796 40.123L2.77611 31.0047C1.58884 28.3274 0.983567 25.4286 1.00034 22.5C0.99673 19.6772 1.55023 16.8814 2.62912 14.2729C3.70801 11.6644 5.29108 9.29445 7.28758 7.29891C9.28507 5.30097 11.6567 3.71629 14.267 2.63549C16.8773 1.55468 19.675 0.998925 22.5002 1C28.2054 1.00038 33.6771 3.26599 37.7127 7.29891C39.7082 9.29522 41.2906 11.6653 42.3694 14.2736C43.4482 16.8819 44.0023 19.6774 44 22.5Z" stroke="black" stroke-width="2" stroke-linecap="round" stroke-linejoin="round"/>
</svg>
