<svg width="23" height="23" viewBox="0 0 23 23" fill="none" xmlns="http://www.w3.org/2000/svg">
<path d="M19.4062 4.4563H3.59375C3.2125 4.4563 2.84687 4.60775 2.57728 4.87733C2.3077 5.14692 2.15625 5.51255 2.15625 5.8938V15.4771C2.15625 15.8584 2.3077 16.224 2.57728 16.4936C2.84687 16.7632 3.2125 16.9146 3.59375 16.9146H4.37958V20.4605L8.3375 16.9146H19.4062C19.7875 16.9146 20.1531 16.7632 20.4227 16.4936C20.6923 16.224 20.8437 15.8584 20.8437 15.4771V5.8938C20.8437 5.51255 20.6923 5.14692 20.4227 4.87733C20.1531 4.60775 19.7875 4.4563 19.4062 4.4563Z" stroke="black" stroke-linecap="round" stroke-linejoin="round"/>
<path d="M11.5002 12.2428C12.3602 12.2428 13.0575 11.5455 13.0575 10.6855C13.0575 9.8254 12.3602 9.12817 11.5002 9.12817C10.6401 9.12817 9.94287 9.8254 9.94287 10.6855C9.94287 11.5455 10.6401 12.2428 11.5002 12.2428Z" stroke="black" stroke-linecap="round" stroke-linejoin="round"/>
<path d="M6.70817 12.2428C7.56824 12.2428 8.26546 11.5455 8.26546 10.6855C8.26546 9.8254 7.56824 9.12817 6.70817 9.12817C5.8481 9.12817 5.15088 9.8254 5.15088 10.6855C5.15088 11.5455 5.8481 12.2428 6.70817 12.2428Z" stroke="black" stroke-linecap="round" stroke-linejoin="round"/>
<path d="M16.2917 12.2428C17.1517 12.2428 17.849 11.5455 17.849 10.6855C17.849 9.8254 17.1517 9.12817 16.2917 9.12817C15.4316 9.12817 14.7344 9.8254 14.7344 10.6855C14.7344 11.5455 15.4316 12.2428 16.2917 12.2428Z" stroke="black" stroke-linecap="round" stroke-linejoin="round"/>
</svg>
