<svg width="23" height="23" viewBox="0 0 23 23" fill="none" xmlns="http://www.w3.org/2000/svg">
<path d="M16.2915 21.0833C15.4929 21.0833 14.8141 20.8038 14.255 20.2447C13.696 19.6857 13.4165 19.0069 13.4165 18.2083C13.4165 18.1125 13.4405 17.8888 13.4884 17.5375L6.75609 13.6083C6.50053 13.8479 6.20505 14.0357 5.86963 14.1718C5.53421 14.3079 5.17484 14.3756 4.7915 14.375C3.99289 14.375 3.31407 14.0954 2.75505 13.5364C2.19602 12.9774 1.9165 12.2986 1.9165 11.5C1.9165 10.7013 2.19602 10.0225 2.75505 9.4635C3.31407 8.90447 3.99289 8.62496 4.7915 8.62496C5.17484 8.62496 5.53421 8.693 5.86963 8.82908C6.20505 8.96517 6.50053 9.15268 6.75609 9.39162L13.4884 5.46246C13.4564 5.35065 13.4366 5.243 13.429 5.1395C13.4213 5.036 13.4171 4.92004 13.4165 4.79163C13.4165 3.99301 13.696 3.3142 14.255 2.75517C14.8141 2.19614 15.4929 1.91663 16.2915 1.91663C17.0901 1.91663 17.7689 2.19614 18.328 2.75517C18.887 3.3142 19.1665 3.99301 19.1665 4.79163C19.1665 5.59024 18.887 6.26906 18.328 6.82808C17.7689 7.38711 17.0901 7.66663 16.2915 7.66663C15.9082 7.66663 15.5488 7.59858 15.2134 7.4625C14.878 7.32642 14.5825 7.1389 14.3269 6.89996L7.59463 10.8291C7.62657 10.9409 7.6467 11.0489 7.655 11.153C7.66331 11.2572 7.66714 11.3728 7.6665 11.5C7.66586 11.6271 7.66203 11.7431 7.655 11.8478C7.64798 11.9526 7.62785 12.0603 7.59463 12.1708L14.3269 16.1C14.5825 15.8604 14.878 15.6729 15.2134 15.5374C15.5488 15.402 15.9082 15.3339 16.2915 15.3333C17.0901 15.3333 17.7689 15.6128 18.328 16.1718C18.887 16.7309 19.1665 17.4097 19.1665 18.2083C19.1665 19.0069 18.887 19.6857 18.328 20.2447C17.7689 20.8038 17.0901 21.0833 16.2915 21.0833ZM16.2915 19.1666C16.563 19.1666 16.7908 19.0749 16.9748 18.8916C17.1588 18.7082 17.2505 18.4805 17.2498 18.2083C17.2492 17.9361 17.1572 17.7087 16.9738 17.526C16.7905 17.3432 16.563 17.2512 16.2915 17.25C16.02 17.2487 15.7925 17.3407 15.6092 17.526C15.4258 17.7112 15.3338 17.9387 15.3332 18.2083C15.3325 18.4779 15.4245 18.7057 15.6092 18.8916C15.7938 19.0775 16.0213 19.1692 16.2915 19.1666ZM4.7915 12.4583C5.06303 12.4583 5.2908 12.3663 5.4748 12.1823C5.6588 11.9983 5.75048 11.7708 5.74984 11.5C5.7492 11.2291 5.6572 11.0016 5.47384 10.8176C5.29048 10.6336 5.06303 10.5416 4.7915 10.5416C4.51998 10.5416 4.29253 10.6336 4.10917 10.8176C3.92581 11.0016 3.83381 11.2291 3.83317 11.5C3.83253 11.7708 3.92453 11.9986 4.10917 12.1832C4.29381 12.3679 4.52125 12.4596 4.7915 12.4583ZM16.2915 5.74996C16.563 5.74996 16.7908 5.65796 16.9748 5.47396C17.1588 5.28996 17.2505 5.06251 17.2498 4.79163C17.2492 4.52074 17.1572 4.29329 16.9738 4.10929C16.7905 3.92529 16.563 3.83329 16.2915 3.83329C16.02 3.83329 15.7925 3.92529 15.6092 4.10929C15.4258 4.29329 15.3338 4.52074 15.3332 4.79163C15.3325 5.06251 15.4245 5.29028 15.6092 5.47492C15.7938 5.65956 16.0213 5.75124 16.2915 5.74996Z" fill="black"/>
</svg>
