<svg width="79" height="63" viewBox="0 0 79 63" fill="none" xmlns="http://www.w3.org/2000/svg">
<path d="M3.74621 31.8889C3.74621 32.9468 2.97614 33.7222 2.1231 33.7222C1.27006 33.7222 0.5 32.9468 0.5 31.8889C0.5 30.8309 1.27006 30.0555 2.1231 30.0555C2.97614 30.0555 3.74621 30.8309 3.74621 31.8889Z" fill="black" stroke="black"/>
<path d="M30.2848 2.33355C30.2848 3.39153 29.5147 4.16686 28.6617 4.16686C27.8086 4.16686 27.0386 3.39153 27.0386 2.33355C27.0386 1.27558 27.8086 0.500244 28.6617 0.500244C29.5147 0.500244 30.2848 1.27558 30.2848 2.33355Z" fill="black" stroke="black"/>
<path d="M56.8238 31.8889C56.8238 32.9468 56.0538 33.7222 55.2007 33.7222C54.3477 33.7222 53.5776 32.9468 53.5776 31.8889C53.5776 30.8309 54.3477 30.0555 55.2007 30.0555C56.0538 30.0555 56.8238 30.8309 56.8238 31.8889Z" fill="black" stroke="black"/>
<path d="M30.2848 60.6663C30.2848 61.7243 29.5147 62.4996 28.6617 62.4996C27.8086 62.4996 27.0386 61.7243 27.0386 60.6663C27.0386 59.6083 27.8086 58.833 28.6617 58.833C29.5147 58.833 30.2848 59.6083 30.2848 60.6663Z" fill="black" stroke="black"/>
<line y1="-0.5" x2="39.1465" y2="-0.5" transform="matrix(0.677935 0.735122 -0.668051 0.744115 2.12305 31.8888)" stroke="black"/>
<line y1="-0.5" x2="39.7218" y2="-0.5" transform="matrix(-0.668117 0.744056 -0.67787 -0.735182 28.6621 2.33362)" stroke="black"/>
<line y1="-0.5" x2="39.4333" y2="-0.5" transform="matrix(0.673005 0.739638 -0.673005 0.739638 28.6621 2.33362)" stroke="black"/>
<path d="M10.8238 31.8889C10.8238 32.9468 10.0538 33.7222 9.20074 33.7222C8.3477 33.7222 7.57764 32.9468 7.57764 31.8889C7.57764 30.8309 8.3477 30.0555 9.20074 30.0555C10.0538 30.0555 10.8238 30.8309 10.8238 31.8889Z" fill="black" stroke="black"/>
<path d="M37.3624 2.33355C37.3624 3.39153 36.5924 4.16686 35.7393 4.16686C34.8863 4.16686 34.1162 3.39153 34.1162 2.33355C34.1162 1.27558 34.8863 0.500244 35.7393 0.500244C36.5924 0.500244 37.3624 1.27558 37.3624 2.33355Z" fill="black" stroke="black"/>
<path d="M63.9015 31.8889C63.9015 32.9468 63.1314 33.7222 62.2784 33.7222C61.4253 33.7222 60.6553 32.9468 60.6553 31.8889C60.6553 30.8309 61.4253 30.0555 62.2784 30.0555C63.1314 30.0555 63.9015 30.8309 63.9015 31.8889Z" fill="black" stroke="black"/>
<path d="M37.3624 60.6663C37.3624 61.7243 36.5924 62.4996 35.7393 62.4996C34.8863 62.4996 34.1162 61.7243 34.1162 60.6663C34.1162 59.6083 34.8863 58.833 35.7393 58.833C36.5924 58.833 37.3624 59.6083 37.3624 60.6663Z" fill="black" stroke="black"/>
<line y1="-0.5" x2="39.1465" y2="-0.5" transform="matrix(0.677935 0.735122 -0.668051 0.744115 9.20068 31.8888)" stroke="black"/>
<line y1="-0.5" x2="39.7218" y2="-0.5" transform="matrix(-0.668117 0.744056 -0.67787 -0.735182 35.7397 2.3335)" stroke="black"/>
<line y1="-0.5" x2="39.4333" y2="-0.5" transform="matrix(0.673005 0.739638 -0.673005 0.739638 35.7397 2.3335)" stroke="black"/>
<path d="M67.7308 31.1113C67.7308 30.0533 68.5009 29.278 69.3539 29.278C70.207 29.278 70.9771 30.0533 70.9771 31.1113C70.9771 32.1692 70.207 32.9446 69.3539 32.9446C68.5009 32.9446 67.7308 32.1692 67.7308 31.1113Z" fill="black" stroke="black"/>
<path d="M41.1923 60.6666C41.1923 59.6086 41.9623 58.8333 42.8154 58.8333C43.6684 58.8333 44.4385 59.6086 44.4385 60.6666C44.4385 61.7245 43.6684 62.4999 42.8154 62.4999C41.9623 62.4999 41.1923 61.7245 41.1923 60.6666Z" fill="black" stroke="black"/>
<path d="M14.6532 31.1113C14.6532 30.0533 15.4233 29.278 16.2763 29.278C17.1294 29.278 17.8994 30.0533 17.8994 31.1113C17.8994 32.1692 17.1294 32.9446 16.2763 32.9446C15.4233 32.9446 14.6532 32.1692 14.6532 31.1113Z" fill="black" stroke="black"/>
<path d="M41.1923 2.33381C41.1923 1.27583 41.9623 0.500498 42.8154 0.500498C43.6684 0.500498 44.4385 1.27583 44.4385 2.33381C44.4385 3.39178 43.6684 4.16711 42.8154 4.16711C41.9623 4.16711 41.1923 3.39178 41.1923 2.33381Z" fill="black" stroke="black"/>
<line y1="-0.5" x2="39.1465" y2="-0.5" transform="matrix(-0.677935 -0.735122 0.668051 -0.744115 69.354 31.1113)" stroke="black"/>
<line y1="-0.5" x2="39.7218" y2="-0.5" transform="matrix(0.668117 -0.744056 0.67787 0.735182 42.8149 60.6666)" stroke="black"/>
<line y1="-0.5" x2="39.4333" y2="-0.5" transform="matrix(-0.673005 -0.739638 0.673005 -0.739638 42.8149 60.6666)" stroke="black"/>
<path d="M74.809 31.1108C74.809 30.0528 75.579 29.2775 76.4321 29.2775C77.2851 29.2775 78.0552 30.0528 78.0552 31.1108C78.0552 32.1688 77.2851 32.9441 76.4321 32.9441C75.579 32.9441 74.809 32.1688 74.809 31.1108Z" fill="black" stroke="black"/>
<path d="M48.2704 60.666C48.2704 59.608 49.0405 58.8327 49.8935 58.8327C50.7465 58.8327 51.5166 59.608 51.5166 60.666C51.5166 61.7239 50.7465 62.4993 49.8935 62.4993C49.0405 62.4993 48.2704 61.7239 48.2704 60.666Z" fill="black" stroke="black"/>
<path d="M21.7313 31.1108C21.7313 30.0528 22.5014 29.2775 23.3544 29.2775C24.2075 29.2775 24.9775 30.0528 24.9775 31.1108C24.9775 32.1688 24.2075 32.9441 23.3544 32.9441C22.5014 32.9441 21.7313 32.1688 21.7313 31.1108Z" fill="black" stroke="black"/>
<path d="M48.2704 2.3332C48.2704 1.27522 49.0405 0.499887 49.8935 0.499887C50.7465 0.499887 51.5166 1.27522 51.5166 2.3332C51.5166 3.39117 50.7465 4.1665 49.8935 4.1665C49.0405 4.1665 48.2704 3.39117 48.2704 2.3332Z" fill="black" stroke="black"/>
<line y1="-0.5" x2="39.1465" y2="-0.5" transform="matrix(-0.677935 -0.735122 0.668051 -0.744115 76.4321 31.1107)" stroke="black"/>
<line y1="-0.5" x2="39.7218" y2="-0.5" transform="matrix(0.668117 -0.744056 0.67787 0.735182 49.8931 60.666)" stroke="black"/>
<line y1="-0.5" x2="39.4333" y2="-0.5" transform="matrix(-0.673005 -0.739638 0.673005 -0.739638 49.8931 60.666)" stroke="black"/>
</svg>
