<svg width="43" height="43" viewBox="0 0 43 43" fill="none" xmlns="http://www.w3.org/2000/svg">
<path d="M16.8893 2.45799e-07C20.0999 -0.000547346 23.2442 0.913863 25.9538 2.6361C28.6634 4.35834 30.8261 6.81709 32.1885 9.72428C33.551 12.6315 34.0566 15.8667 33.6464 19.051C33.2361 22.2353 31.9269 25.2367 29.8721 27.7036L42.5478 40.376C42.8199 40.6469 42.9806 41.0098 42.9984 41.3933C43.0161 41.7768 42.8896 42.1531 42.6437 42.4479C42.3978 42.7427 42.0504 42.9348 41.6699 42.9862C41.2895 43.0376 40.9035 42.9446 40.5882 42.7256L40.3732 42.5505L27.7006 29.8751C25.6157 31.6106 23.1435 32.8186 20.4931 33.3968C17.8427 33.9749 15.092 33.9063 12.4737 33.1967C9.8554 32.487 7.44652 31.1573 5.4508 29.3199C3.45508 27.4825 1.93122 25.1915 1.00811 22.6407C0.0850051 20.0898 -0.210194 17.3542 0.14748 14.6652C0.505155 11.9762 1.50518 9.41282 3.06298 7.19197C4.62078 4.97113 6.69052 3.15811 9.09715 1.90626C11.5038 0.65441 14.1765 0.000555906 16.8893 2.45799e-07ZM16.8893 3.07135C13.2236 3.07135 9.70812 4.5275 7.11612 7.11946C4.52412 9.71141 3.06795 13.2269 3.06795 16.8924C3.06795 20.558 4.52412 24.0735 7.11612 26.6654C9.70812 29.2574 13.2236 30.7135 16.8893 30.7135C20.5549 30.7135 24.0704 29.2574 26.6624 26.6654C29.2544 24.0735 30.7106 20.558 30.7106 16.8924C30.7106 13.2269 29.2544 9.71141 26.6624 7.11946C24.0704 4.5275 20.5549 3.07135 16.8893 3.07135Z" fill="black"/>
</svg>
