<svg width="40" height="40" viewBox="0 0 40 40" fill="none" xmlns="http://www.w3.org/2000/svg">
<path d="M36.6667 13.6034V13.725C36.6667 15.1584 36.6667 15.8767 36.3217 16.4634C35.9767 17.05 35.3484 17.3984 34.095 18.0967L32.7734 18.83C33.6834 15.75 33.9884 12.44 34.1 9.61003L34.1167 9.2417L34.12 9.15503C35.205 9.5317 35.815 9.81336 36.195 10.34C36.6667 10.995 36.6667 11.865 36.6667 13.6034ZM3.33337 13.6034V13.725C3.33337 15.1584 3.33337 15.8767 3.67837 16.4634C4.02337 17.05 4.65171 17.3984 5.90504 18.0967L7.22837 18.83C6.31671 15.75 6.01171 12.44 5.90004 9.61003L5.88337 9.2417L5.88171 9.15503C4.79504 9.5317 4.18504 9.81336 3.80504 10.34C3.33337 10.995 3.33337 11.8667 3.33337 13.6034Z" fill="black"/>
<path fill-rule="evenodd" clip-rule="evenodd" d="M27.295 3.91172C24.8836 3.51671 22.4435 3.32327 20 3.33339C17.0283 3.33339 14.5783 3.59505 12.705 3.91172C10.8066 4.23172 9.8583 4.39172 9.06497 5.36839C8.2733 6.34505 8.31497 7.40005 8.3983 9.51005C8.68664 16.7567 10.25 25.8101 18.75 26.6101V32.5001H16.3666C15.9815 32.5003 15.6083 32.6339 15.3105 32.8782C15.0128 33.1225 14.8088 33.4624 14.7333 33.8401L14.4166 35.4167H9.99997C9.66845 35.4167 9.35051 35.5484 9.11609 35.7828C8.88166 36.0173 8.74997 36.3352 8.74997 36.6667C8.74997 36.9982 8.88166 37.3162 9.11609 37.5506C9.35051 37.785 9.66845 37.9167 9.99997 37.9167H30C30.3315 37.9167 30.6494 37.785 30.8839 37.5506C31.1183 37.3162 31.25 36.9982 31.25 36.6667C31.25 36.3352 31.1183 36.0173 30.8839 35.7828C30.6494 35.5484 30.3315 35.4167 30 35.4167H25.5833L25.2666 33.8401C25.1911 33.4624 24.9872 33.1225 24.6894 32.8782C24.3916 32.6339 24.0185 32.5003 23.6333 32.5001H21.25V26.6101C29.75 25.8101 31.315 16.7584 31.6016 9.51005C31.685 7.40005 31.7283 6.34339 30.935 5.36839C30.1416 4.39172 29.1933 4.23172 27.295 3.91172Z" fill="black"/>
</svg>
